<svg xmlns="http://www.w3.org/2000/svg" viewBox="0 0 249 249">
  <defs>
    <mask id="cutout-mask">
      <circle cx="125" cy="125" r="124" fill="white" />
      <g fill="black" transform="translate(28, 148) scale(2)">
        <path d="M23.40 0.86Q17.57 0.86 12.85-1.69Q8.14-4.25 5.51-8.78Q2.88-13.32 2.88-19.08Q2.88-24.84 5.51-29.41Q8.14-33.98 12.85-36.54Q17.57-39.10 23.40-39.10Q29.30-39.10 34.02-36.54Q38.74-33.98 41.36-29.41Q43.99-24.84 43.99-19.08Q43.99-13.32 41.36-8.78Q38.74-4.25 34.02-1.69Q29.30 0.86 23.40 0.86ZM23.40-9.72Q26.06-9.72 28.22-10.94Q30.38-12.17 31.61-14.29Q32.83-16.42 32.83-19.08Q32.83-21.82 31.61-23.98Q30.38-26.14 28.26-27.32Q26.14-28.51 23.40-28.51Q20.74-28.51 18.58-27.32Q16.42-26.14 15.26-23.98Q14.11-21.82 14.11-19.08Q14.11-16.42 15.26-14.29Q16.42-12.17 18.58-10.94Q20.74-9.72 23.40-9.72ZM71.50 20.16Q66.02 20.16 61.67 18.11Q57.31 16.06 54.76 12.38Q52.20 8.71 52.20 4.10L62.71 4.10Q62.93 6.19 64.15 7.81Q65.38 9.43 67.32 10.26Q69.26 11.09 71.42 11.09Q74.38 11.09 76.50 9.86Q78.62 8.64 79.78 6.41Q80.93 4.18 80.93 1.30L81.00-4.39Q79.27-1.94 76.46-0.54Q73.66 0.86 70.20 0.86Q64.37 0.86 59.83-1.73Q55.30-4.32 52.70-8.86Q50.11-13.39 50.11-19.08Q50.11-24.70 52.70-29.30Q55.30-33.91 59.90-36.50Q64.51-39.10 70.27-39.10Q74.45-39.10 77.76-37.44Q81.07-35.78 83.16-32.76L83.23-38.23L92.23-38.23L92.23 0.86Q92.23 6.48 89.60 10.87Q86.98 15.26 82.26 17.71Q77.54 20.16 71.50 20.16ZM61.56-19.08Q61.56-16.27 62.82-14.04Q64.08-11.81 66.28-10.55Q68.47-9.29 71.28-9.29Q74.02-9.29 76.28-10.55Q78.55-11.81 79.78-14.04Q81.00-16.27 81.00-19.08Q81.00-22.03 79.78-24.26Q78.55-26.50 76.28-27.68Q74.02-28.87 71.28-28.87Q68.47-28.87 66.24-27.68Q64.01-26.50 62.78-24.26Q61.56-22.03 61.56-19.08Z" />
      </g>
    </mask>
  </defs>
  <g transform="scale(0.96) translate(5.2, 5.2)">
    <circle cx="125" cy="125" r="124" fill="#333" mask="url(#cutout-mask)" />
  </g>
</svg>
