<svg xmlns="http://www.w3.org/2000/svg" xmlns:xlink="http://www.w3.org/1999/xlink" contentStyleType="text/css" height="475px" preserveAspectRatio="none" style="width:519px;height:475px;background:#FFFFFF;" version="1.1" viewBox="0 0 519 475" width="519px" zoomAndPan="magnify"><defs/><g><rect fill="#FFFFFF" height="58.6211" style="stroke:#181818;stroke-width:1.0;" width="10" x="169.4595" y="112.7988"/><rect fill="#FFFFFF" height="58.6211" style="stroke:#181818;stroke-width:1.0;" width="10" x="169.4595" y="259.3516"/><rect fill="#FFFFFF" height="29.3105" style="stroke:#181818;stroke-width:1.0;" width="10" x="356.624" y="142.1094"/><rect fill="#FFFFFF" height="29.3105" style="stroke:#181818;stroke-width:1.0;" width="10" x="356.624" y="200.7305"/><rect fill="#FFFFFF" height="29.3105" style="stroke:#181818;stroke-width:1.0;" width="10" x="356.624" y="347.2832"/><rect fill="#FFFFFF" height="29.3105" style="stroke:#181818;stroke-width:1.0;" width="10" x="463.9302" y="288.6621"/><line style="stroke:#181818;stroke-width:0.5;stroke-dasharray:5.0,5.0;" x1="23" x2="23" y1="81.4883" y2="394.5938"/><line style="stroke:#181818;stroke-width:0.5;stroke-dasharray:5.0,5.0;" x1="173.707" x2="173.707" y1="81.4883" y2="394.5938"/><line style="stroke:#181818;stroke-width:0.5;stroke-dasharray:5.0,5.0;" x1="360.8267" x2="360.8267" y1="81.4883" y2="394.5938"/><line style="stroke:#181818;stroke-width:0.5;stroke-dasharray:5.0,5.0;" x1="468.4214" x2="468.4214" y1="81.4883" y2="394.5938"/><text fill="#000000" font-family="sans-serif" font-size="14" lengthAdjust="spacing" textLength="30.3652" x="5" y="78.5352">User</text><ellipse cx="23.1826" cy="13.5" fill="#E2E2F0" rx="8" ry="8" style="stroke:#181818;stroke-width:0.5;"/><path d="M23.1826,21.5 L23.1826,48.5 M10.1826,29.5 L36.1826,29.5 M23.1826,48.5 L10.1826,63.5 M23.1826,48.5 L36.1826,63.5 " fill="none" style="stroke:#181818;stroke-width:0.5;"/><text fill="#000000" font-family="sans-serif" font-size="14" lengthAdjust="spacing" textLength="30.3652" x="5" y="407.1289">User</text><ellipse cx="23.1826" cy="418.582" fill="#E2E2F0" rx="8" ry="8" style="stroke:#181818;stroke-width:0.5;"/><path d="M23.1826,426.582 L23.1826,453.582 M10.1826,434.582 L36.1826,434.582 M23.1826,453.582 L10.1826,468.582 M23.1826,453.582 L36.1826,468.582 " fill="none" style="stroke:#181818;stroke-width:0.5;"/><rect fill="#E2E2F0" height="30.4883" rx="2.5" ry="2.5" style="stroke:#181818;stroke-width:0.5;" width="53.5049" x="147.707" y="50"/><text fill="#000000" font-family="sans-serif" font-size="14" lengthAdjust="spacing" textLength="39.5049" x="154.707" y="70.5352">Client</text><rect fill="#E2E2F0" height="30.4883" rx="2.5" ry="2.5" style="stroke:#181818;stroke-width:0.5;" width="53.5049" x="147.707" y="393.5938"/><text fill="#000000" font-family="sans-serif" font-size="14" lengthAdjust="spacing" textLength="39.5049" x="154.707" y="414.1289">Client</text><rect fill="#E2E2F0" height="30.4883" rx="2.5" ry="2.5" style="stroke:#181818;stroke-width:0.5;" width="105.5947" x="308.8267" y="50"/><text fill="#000000" font-family="sans-serif" font-size="14" lengthAdjust="spacing" textLength="91.5947" x="315.8267" y="70.5352">Subscribe API</text><rect fill="#E2E2F0" height="30.4883" rx="2.5" ry="2.5" style="stroke:#181818;stroke-width:0.5;" width="105.5947" x="308.8267" y="393.5938"/><text fill="#000000" font-family="sans-serif" font-size="14" lengthAdjust="spacing" textLength="91.5947" x="315.8267" y="414.1289">Subscribe API</text><rect fill="#E2E2F0" height="30.4883" rx="2.5" ry="2.5" style="stroke:#181818;stroke-width:0.5;" width="89.0176" x="424.4214" y="50"/><text fill="#000000" font-family="sans-serif" font-size="14" lengthAdjust="spacing" textLength="75.0176" x="431.4214" y="70.5352">Publish API</text><rect fill="#E2E2F0" height="30.4883" rx="2.5" ry="2.5" style="stroke:#181818;stroke-width:0.5;" width="89.0176" x="424.4214" y="393.5938"/><text fill="#000000" font-family="sans-serif" font-size="14" lengthAdjust="spacing" textLength="75.0176" x="431.4214" y="414.1289">Publish API</text><rect fill="#FFFFFF" height="58.6211" style="stroke:#181818;stroke-width:1.0;" width="10" x="169.4595" y="112.7988"/><rect fill="#FFFFFF" height="58.6211" style="stroke:#181818;stroke-width:1.0;" width="10" x="169.4595" y="259.3516"/><rect fill="#FFFFFF" height="29.3105" style="stroke:#181818;stroke-width:1.0;" width="10" x="356.624" y="142.1094"/><rect fill="#FFFFFF" height="29.3105" style="stroke:#181818;stroke-width:1.0;" width="10" x="356.624" y="200.7305"/><rect fill="#FFFFFF" height="29.3105" style="stroke:#181818;stroke-width:1.0;" width="10" x="356.624" y="347.2832"/><rect fill="#FFFFFF" height="29.3105" style="stroke:#181818;stroke-width:1.0;" width="10" x="463.9302" y="288.6621"/><polygon fill="#181818" points="157.4595,108.7988,167.4595,112.7988,157.4595,116.7988,161.4595,112.7988" style="stroke:#181818;stroke-width:1.0;"/><line style="stroke:#181818;stroke-width:1.0;" x1="23.1826" x2="163.4595" y1="112.7988" y2="112.7988"/><text fill="#000000" font-family="sans-serif" font-size="13" lengthAdjust="spacing" textLength="110.7539" x="30.1826" y="108.0566">Open chat widget</text><polygon fill="#181818" points="344.624,138.1094,354.624,142.1094,344.624,146.1094,348.624,142.1094" style="stroke:#181818;stroke-width:1.0;"/><line style="stroke:#181818;stroke-width:1.0;" x1="179.4595" x2="350.624" y1="142.1094" y2="142.1094"/><text fill="#000000" font-family="sans-serif" font-size="13" lengthAdjust="spacing" textLength="158.1646" x="186.4595" y="137.3672">GET /recent (load recent)</text><polygon fill="#181818" points="185.4595,167.4199,175.4595,171.4199,185.4595,175.4199,181.4595,171.4199" style="stroke:#181818;stroke-width:1.0;"/><line style="stroke:#181818;stroke-width:1.0;stroke-dasharray:2.0,2.0;" x1="179.4595" x2="360.624" y1="171.4199" y2="171.4199"/><text fill="#000000" font-family="sans-serif" font-size="13" lengthAdjust="spacing" textLength="146.2183" x="191.4595" y="166.6777">200 JSON [messages...]</text><polygon fill="#181818" points="344.624,196.7305,354.624,200.7305,344.624,204.7305,348.624,200.7305" style="stroke:#181818;stroke-width:1.0;"/><line style="stroke:#181818;stroke-width:1.0;" x1="174.4595" x2="350.624" y1="200.7305" y2="200.7305"/><text fill="#000000" font-family="sans-serif" font-size="13" lengthAdjust="spacing" textLength="129.689" x="181.4595" y="195.9883">GET /wait (long poll)</text><polygon fill="#181818" points="185.4595,226.041,175.4595,230.041,185.4595,234.041,181.4595,230.041" style="stroke:#181818;stroke-width:1.0;"/><line style="stroke:#181818;stroke-width:1.0;stroke-dasharray:2.0,2.0;" x1="179.4595" x2="360.624" y1="230.041" y2="230.041"/><text fill="#000000" font-family="sans-serif" font-size="13" lengthAdjust="spacing" textLength="127.2515" x="191.4595" y="225.2988">200 JSON {message}</text><polygon fill="#181818" points="157.4595,255.3516,167.4595,259.3516,157.4595,263.3516,161.4595,259.3516" style="stroke:#181818;stroke-width:1.0;"/><line style="stroke:#181818;stroke-width:1.0;" x1="23.1826" x2="163.4595" y1="259.3516" y2="259.3516"/><text fill="#000000" font-family="sans-serif" font-size="13" lengthAdjust="spacing" textLength="127.2769" x="30.1826" y="254.6094">Send message (text)</text><polygon fill="#181818" points="451.9302,284.6621,461.9302,288.6621,451.9302,292.6621,455.9302,288.6621" style="stroke:#181818;stroke-width:1.0;"/><line style="stroke:#181818;stroke-width:1.0;" x1="179.4595" x2="457.9302" y1="288.6621" y2="288.6621"/><text fill="#000000" font-family="sans-serif" font-size="13" lengthAdjust="spacing" textLength="180.3179" x="186.4595" y="283.9199">POST /ask (submit message)</text><polygon fill="#181818" points="185.4595,313.9727,175.4595,317.9727,185.4595,321.9727,181.4595,317.9727" style="stroke:#181818;stroke-width:1.0;"/><line style="stroke:#181818;stroke-width:1.0;stroke-dasharray:2.0,2.0;" x1="179.4595" x2="467.9302" y1="317.9727" y2="317.9727"/><text fill="#000000" font-family="sans-serif" font-size="13" lengthAdjust="spacing" textLength="47.3599" x="191.4595" y="313.2305">200 OK</text><polygon fill="#181818" points="344.624,343.2832,354.624,347.2832,344.624,351.2832,348.624,347.2832" style="stroke:#181818;stroke-width:1.0;"/><line style="stroke:#181818;stroke-width:1.0;" x1="174.4595" x2="350.624" y1="347.2832" y2="347.2832"/><text fill="#000000" font-family="sans-serif" font-size="13" lengthAdjust="spacing" textLength="129.689" x="181.4595" y="342.541">GET /wait (long poll)</text><polygon fill="#181818" points="185.4595,372.5938,175.4595,376.5938,185.4595,380.5938,181.4595,376.5938" style="stroke:#181818;stroke-width:1.0;"/><line style="stroke:#181818;stroke-width:1.0;stroke-dasharray:2.0,2.0;" x1="179.4595" x2="360.624" y1="376.5938" y2="376.5938"/><text fill="#000000" font-family="sans-serif" font-size="13" lengthAdjust="spacing" textLength="127.2515" x="191.4595" y="371.8516">200 JSON {message}</text><!--SRC=[nP5DIyGm48Rl-HL3BtOFhOl77WGHaLMmnUf9F4pJiGrcqzAakuButssswST-iE39KvAPT-PzCeFSL0ruhveQ3r23lR0Q6oEug54Py6wb86LsoVwwdqxRJFD6P0GtoMgd6YFxmgJDfD3bA7DlnYvWfOGHA45Mc3DB0C6rCuiWhaa1Bz70LkG56ORSY0qQ6d3wmvQCpX7Stxt0PKFSPdpR5_h7OYgVEAS_13FZg-KI7jBu2TxMf3KMfCCmV6SvdUWm2pggxblFdQFOaFLNHL1NKYxEm6vHc5uAlVJleDyEzESqP8UKaZgUi0s2AmNVqDTyIaT3TdkB88dJ3Xlr9_YwpTOTlUingnwMF2p_43j-dACEwhFJ95vMK7s0jZpEyJ_7-Wi0]--></g></svg>