<svg
    version="1.0"
    xmlns="http://www.w3.org/2000/svg"
    xmlns:xlink="http://www.w3.org/1999/xlink"
    width="512"
    height="512"
    viewBox="0 0 512 512"
  >
    <svg id="global-svg-defs" version="1.0" xmlns="http://www.w3.org/2000/svg" width="0" height="0" viewBox="0 0 340.000000 250.000000" preserveAspectRatio="xMidYMid meet" color-interpolation-filters="sRGB" class="el-tooltip" style="margin: auto;" xmlns:xlink="http://www.w3.org/1999/xlink">
    <defs>
      <pattern id="watermark" patternUnits="userSpaceOnUse" width="100%" height="100%">
        <image xlink:href="https://www.logoai.com/img/watermark/LOGOAI-watermark.png" x="0" y="0" width="100%" height="100%">
        </image>
      </pattern>
                    <linearGradient id="92" x1="0%" y1="0%" x2="100%" y2="0%">
          <stop offset="0%" stop-color="#fa71cd"></stop>
          <stop offset="100%" stop-color="#9b59b6"></stop>
        </linearGradient>
              <linearGradient id="93" x1="0%" y1="0%" x2="100%" y2="0%">
          <stop offset="0%" stop-color="#f9d423"></stop>
          <stop offset="100%" stop-color="#f83600"></stop>
        </linearGradient>
              <linearGradient id="94" x1="0%" y1="0%" x2="100%" y2="0%">
          <stop offset="0%" stop-color="#0064d2"></stop>
          <stop offset="100%" stop-color="#1cb0f6"></stop>
        </linearGradient>
              <linearGradient id="95" x1="0%" y1="0%" x2="100%" y2="0%">
          <stop offset="0%" stop-color="#f00978"></stop>
          <stop offset="100%" stop-color="#3f51b1"></stop>
        </linearGradient>
              <linearGradient id="96" x1="0%" y1="0%" x2="100%" y2="0%">
          <stop offset="0%" stop-color="#7873f5"></stop>
          <stop offset="100%" stop-color="#ec77ab"></stop>
        </linearGradient>
              <linearGradient id="97" x1="0%" y1="0%" x2="100%" y2="0%">
          <stop offset="0%" stop-color="#f9d423"></stop>
          <stop offset="100%" stop-color="#e14fad"></stop>
        </linearGradient>
              <linearGradient id="98" x1="0%" y1="0%" x2="100%" y2="0%">
          <stop offset="0%" stop-color="#009efd"></stop>
          <stop offset="100%" stop-color="#2af598"></stop>
        </linearGradient>
              <linearGradient id="99" x1="0%" y1="0%" x2="100%" y2="0%">
          <stop offset="0%" stop-color="#ffcc00"></stop>
          <stop offset="100%" stop-color="#00b140"></stop>
        </linearGradient>
              <linearGradient id="100" x1="0%" y1="0%" x2="100%" y2="0%">
          <stop offset="0%" stop-color="#d51007"></stop>
          <stop offset="100%" stop-color="#ff8177"></stop>
        </linearGradient>
              <linearGradient id="102" x1="0%" y1="0%" x2="100%" y2="0%">
          <stop offset="0%" stop-color="#a2b6df"></stop>
          <stop offset="100%" stop-color="#0c3483"></stop>
        </linearGradient>
              <linearGradient id="103" x1="0%" y1="0%" x2="100%" y2="0%">
          <stop offset="0%" stop-color="#7ac5d8"></stop>
          <stop offset="100%" stop-color="#eea2a2"></stop>
        </linearGradient>
              <linearGradient id="104" x1="0%" y1="0%" x2="100%" y2="0%">
          <stop offset="0%" stop-color="#00ecbc"></stop>
          <stop offset="100%" stop-color="#007adf"></stop>
        </linearGradient>
          </defs>
  </svg>
    <rect
      x="0"
      y="0"
      width="100%"
      height="100%"
      fill="transparent"
      fill-opacity="1"
    ></rect>
    <svg data-v-0dd9719b="" version="1.0" xmlns="http://www.w3.org/2000/svg" xmlns:xlink="http://www.w3.org/1999/xlink" width="100%" height="100%" viewBox="0 0 100 100" preserveAspectRatio="xMidYMid meet" color-interpolation-filters="sRGB" style="margin: auto;"> <rect data-v-0dd9719b="" x="0" y="0" width="100%" height="100%" fill="#ffffff" fill-opacity="1" class="background" style="display: none;"/> <rect data-v-0dd9719b="" x="0" y="0" width="100%" height="100%" fill="url(#watermark)" fill-opacity="1" class="watermarklayer" style="display: none;"/> <g data-v-0dd9719b="" fill="#333" class="iconsvg-imagesvg"><rect fill="#333" fill-opacity="0" stroke-width="2" x="0" y="0" width="100" height="100" class="image-rect"/> <svg viewBox="0 0 60 60" x="0" y="0" width="100" height="100" class="image-svg-svg bn" style="overflow: visible;"><g hollow-target="iconBnFill" mask="url(#c0001917-9c19-4d1a-a376-2876e768532f)"><g><svg xmlns="http://www.w3.org/2000/svg" xmlns:xlink="http://www.w3.org/1999/xlink" xml:space="preserve" version="1.1" style="shape-rendering: geometricprecision; text-rendering: geometricprecision; overflow: visible;" viewBox="0 0 249 249" x="0" y="0" fill-rule="evenodd" clip-rule="evenodd" width="60" height="60" filtersec="colorsb7574985462" filter="url(#CROPZgCJdXrRVwBtztxKI)"><g transform="scale(1, 1) skewX(0)"><defs><filter id="CROPZgCJdXrRVwBtztxKI"><feColorMatrix type="matrix" values="0 0 0 0 0.19921875  0 0 0 0 0.19921875  0 0 0 0 0.19921875  0 0 0 1 0"/></filter></defs><g><path class="fil0" d="M125 0c68,0 124,56 124,125 0,68 -56,124 -124,124 -69,0 -125,-56 -125,-124 0,-69 56,-125 125,-125z"/></g></g></svg></g> <g filter="url(#colors8743649806)"><svg xmlns="http://www.w3.org/2000/svg" xmlns:xlink="http://www.w3.org/1999/xlink" viewBox="0 0 89.35200000000002 59.25600000000001" width="45" height="45" x="7.5" y="7.5" class="image-svg-letter"><path transform="translate(-2.8800000000000003 39.096000000000004)" d="M23.40 0.86L23.40 0.86Q17.57 0.86 12.85-1.69Q8.14-4.25 5.51-8.78Q2.88-13.32 2.88-19.08L2.88-19.08Q2.88-24.84 5.51-29.41Q8.14-33.98 12.85-36.54Q17.57-39.10 23.40-39.10L23.40-39.10Q29.30-39.10 34.02-36.54Q38.74-33.98 41.36-29.41Q43.99-24.84 43.99-19.08L43.99-19.08Q43.99-13.32 41.36-8.78Q38.74-4.25 34.02-1.69Q29.30 0.86 23.40 0.86ZM23.40-9.72L23.40-9.72Q26.06-9.72 28.22-10.94Q30.38-12.17 31.61-14.29Q32.83-16.42 32.83-19.08L32.83-19.08Q32.83-21.82 31.61-23.98Q30.38-26.14 28.26-27.32Q26.14-28.51 23.40-28.51L23.40-28.51Q20.74-28.51 18.58-27.32Q16.42-26.14 15.26-23.98Q14.11-21.82 14.11-19.08L14.11-19.08Q14.11-16.42 15.26-14.29Q16.42-12.17 18.58-10.94Q20.74-9.72 23.40-9.72ZM71.50 20.16L71.50 20.16Q66.02 20.16 61.67 18.11Q57.31 16.06 54.76 12.38Q52.20 8.71 52.20 4.10L52.20 4.10L62.71 4.10Q62.93 6.19 64.15 7.81Q65.38 9.43 67.32 10.26Q69.26 11.09 71.42 11.09L71.42 11.09Q74.38 11.09 76.50 9.86Q78.62 8.64 79.78 6.41Q80.93 4.18 80.93 1.30L80.93 1.30L81.00-4.39Q79.27-1.94 76.46-0.54Q73.66 0.86 70.20 0.86L70.20 0.86Q64.37 0.86 59.83-1.73Q55.30-4.32 52.70-8.86Q50.11-13.39 50.11-19.08L50.11-19.08Q50.11-24.70 52.70-29.30Q55.30-33.91 59.90-36.50Q64.51-39.10 70.27-39.10L70.27-39.10Q74.45-39.10 77.76-37.44Q81.07-35.78 83.16-32.76L83.16-32.76L83.23-38.23L92.23-38.23L92.23 0.86Q92.23 6.48 89.60 10.87Q86.98 15.26 82.26 17.71Q77.54 20.16 71.50 20.16ZM61.56-19.08L61.56-19.08Q61.56-16.27 62.82-14.04Q64.08-11.81 66.28-10.55Q68.47-9.29 71.28-9.29L71.28-9.29Q74.02-9.29 76.28-10.55Q78.55-11.81 79.78-14.04Q81.00-16.27 81.00-19.08L81.00-19.08Q81.00-22.03 79.78-24.26Q78.55-26.50 76.28-27.68Q74.02-28.87 71.28-28.87L71.28-28.87Q68.47-28.87 66.24-27.68Q64.01-26.50 62.78-24.26Q61.56-22.03 61.56-19.08Z"/></svg></g></g><mask id="c0001917-9c19-4d1a-a376-2876e768532f"><g fill="white"><svg xmlns="http://www.w3.org/2000/svg" xmlns:xlink="http://www.w3.org/1999/xlink" xml:space="preserve" version="1.1" style="shape-rendering: geometricprecision; text-rendering: geometricprecision; overflow: visible;" viewBox="0 0 249 249" x="0" y="0" fill-rule="evenodd" clip-rule="evenodd" width="60" height="60" filtersec="colorsb7574985462"><g transform="scale(1, 1) skewX(0)"><defs/><g><path d="M125 0c68,0 124,56 124,125 0,68 -56,124 -124,124 -69,0 -125,-56 -125,-124 0,-69 56,-125 125,-125z"/></g></g></svg></g> <g fill="black"><svg xmlns="http://www.w3.org/2000/svg" xmlns:xlink="http://www.w3.org/1999/xlink" viewBox="0 0 89.35200000000002 59.25600000000001" width="45" height="45" x="7.5" y="7.5" class="image-svg-letter"><path transform="translate(-2.8800000000000003 39.096000000000004)" d="M23.40 0.86L23.40 0.86Q17.57 0.86 12.85-1.69Q8.14-4.25 5.51-8.78Q2.88-13.32 2.88-19.08L2.88-19.08Q2.88-24.84 5.51-29.41Q8.14-33.98 12.85-36.54Q17.57-39.10 23.40-39.10L23.40-39.10Q29.30-39.10 34.02-36.54Q38.74-33.98 41.36-29.41Q43.99-24.84 43.99-19.08L43.99-19.08Q43.99-13.32 41.36-8.78Q38.74-4.25 34.02-1.69Q29.30 0.86 23.40 0.86ZM23.40-9.72L23.40-9.72Q26.06-9.72 28.22-10.94Q30.38-12.17 31.61-14.29Q32.83-16.42 32.83-19.08L32.83-19.08Q32.83-21.82 31.61-23.98Q30.38-26.14 28.26-27.32Q26.14-28.51 23.40-28.51L23.40-28.51Q20.74-28.51 18.58-27.32Q16.42-26.14 15.26-23.98Q14.11-21.82 14.11-19.08L14.11-19.08Q14.11-16.42 15.26-14.29Q16.42-12.17 18.58-10.94Q20.74-9.72 23.40-9.72ZM71.50 20.16L71.50 20.16Q66.02 20.16 61.67 18.11Q57.31 16.06 54.76 12.38Q52.20 8.71 52.20 4.10L52.20 4.10L62.71 4.10Q62.93 6.19 64.15 7.81Q65.38 9.43 67.32 10.26Q69.26 11.09 71.42 11.09L71.42 11.09Q74.38 11.09 76.50 9.86Q78.62 8.64 79.78 6.41Q80.93 4.18 80.93 1.30L80.93 1.30L81.00-4.39Q79.27-1.94 76.46-0.54Q73.66 0.86 70.20 0.86L70.20 0.86Q64.37 0.86 59.83-1.73Q55.30-4.32 52.70-8.86Q50.11-13.39 50.11-19.08L50.11-19.08Q50.11-24.70 52.70-29.30Q55.30-33.91 59.90-36.50Q64.51-39.10 70.27-39.10L70.27-39.10Q74.45-39.10 77.76-37.44Q81.07-35.78 83.16-32.76L83.16-32.76L83.23-38.23L92.23-38.23L92.23 0.86Q92.23 6.48 89.60 10.87Q86.98 15.26 82.26 17.71Q77.54 20.16 71.50 20.16ZM61.56-19.08L61.56-19.08Q61.56-16.27 62.82-14.04Q64.08-11.81 66.28-10.55Q68.47-9.29 71.28-9.29L71.28-9.29Q74.02-9.29 76.28-10.55Q78.55-11.81 79.78-14.04Q81.00-16.27 81.00-19.08L81.00-19.08Q81.00-22.03 79.78-24.26Q78.55-26.50 76.28-27.68Q74.02-28.87 71.28-28.87L71.28-28.87Q68.47-28.87 66.24-27.68Q64.01-26.50 62.78-24.26Q61.56-22.03 61.56-19.08Z"/></svg></g></mask></svg> <defs><filter id="colors8743649806"><feColorMatrix type="matrix" values="0 0 0 0 0.19921875  0 0 0 0 0.19921875  0 0 0 0 0.19921875  0 0 0 1 0" class="icon-fecolormatrix"/></filter> <filter id="colorsf2630640422"><feColorMatrix type="matrix" values="0 0 0 0 0.99609375  0 0 0 0 0.99609375  0 0 0 0 0.99609375  0 0 0 1 0" class="icon-fecolormatrix"/></filter> <filter id="colorsb7574985462"><feColorMatrix type="matrix" values="0 0 0 0 0  0 0 0 0 0  0 0 0 0 0  0 0 0 1 0" class="icon-fecolormatrix"/></filter></defs></g><defs v-gra="od"/></svg>
  </svg>